<svg width="40" height="40" viewBox="0 0 40 40" fill="none" xmlns="http://www.w3.org/2000/svg">
<path d="M14 0H4.00001C1.79087 0 0 1.79086 0 4V18C0 20.2091 1.79087 22 4.00001 22H14C16.2092 22 18 20.2091 18 18V4C18 1.79086 16.2092 0 14 0Z" fill="#FF7F50"/>
<path d="M36 0H26C23.7909 0 22 1.79086 22 4V10C22 12.2091 23.7909 14 26 14H36C38.2092 14 40 12.2091 40 10V4C40 1.79086 38.2092 0 36 0Z" fill="#FF7F50"/>
<path d="M14 26H4.00001C1.79087 26 0 27.7908 0 30V36C0 38.2091 1.79087 40 4.00001 40H14C16.2092 40 18 38.2091 18 36V30C18 27.7908 16.2092 26 14 26Z" fill="#FF7F50"/>
<path d="M36 18H26C23.7909 18 22 19.7909 22 22V36C22 38.2091 23.7909 40 26 40H36C38.2092 40 40 38.2091 40 36V22C40 19.7909 38.2092 18 36 18Z" fill="#FF7F50"/>
</svg>
