<svg width="50" height="50" viewBox="0 0 50 50" fill="none" xmlns="http://www.w3.org/2000/svg">
<path d="M4.16671 43.75H16.6667C17.2192 43.75 17.7491 43.5305 18.1398 43.1398C18.5305 42.7491 18.75 42.2192 18.75 41.6667C18.75 41.1141 18.5305 40.5842 18.1398 40.1935C17.7491 39.8028 17.2192 39.5833 16.6667 39.5833H6.39796C6.90349 36.1142 8.63991 32.9427 11.2901 30.6477C13.9404 28.3528 17.3276 27.0877 20.8334 27.0833C23.2865 27.1046 25.6697 26.267 27.57 24.7156C29.4703 23.1642 30.768 20.9968 31.2381 18.5891C31.7082 16.1814 31.3211 13.6851 30.1439 11.5329C28.9668 9.38059 27.0737 7.70799 24.7928 6.80495C22.5119 5.9019 19.9869 5.82533 17.6554 6.58849C15.324 7.35166 13.333 8.90646 12.0276 10.9834C10.7222 13.0604 10.1845 15.5287 10.5079 17.9605C10.8312 20.3922 11.9951 22.6342 13.798 24.2979C10.3401 25.7007 7.37872 28.1023 5.29214 31.196C3.20555 34.2897 2.08841 37.9351 2.08337 41.6667C2.08337 42.2192 2.30287 42.7491 2.69357 43.1398C3.08427 43.5305 3.61417 43.75 4.16671 43.75ZM20.8334 10.4167C22.0695 10.4167 23.2779 10.7832 24.3057 11.47C25.3335 12.1567 26.1346 13.1329 26.6076 14.2749C27.0807 15.4169 27.2044 16.6736 26.9633 17.886C26.7221 19.0984 26.1269 20.212 25.2528 21.0861C24.3787 21.9602 23.2651 22.5554 22.0527 22.7966C20.8403 23.0377 19.5836 22.914 18.4416 22.4409C17.2996 21.9679 16.3234 21.1668 15.6367 20.139C14.9499 19.1112 14.5834 17.9028 14.5834 16.6667C14.5834 15.0091 15.2419 13.4194 16.414 12.2473C17.5861 11.0751 19.1758 10.4167 20.8334 10.4167ZM42.098 19.3604C41.7073 18.9699 41.1775 18.7504 40.625 18.7504C40.0726 18.7504 39.5428 18.9699 39.1521 19.3604L26.1313 32.3813C25.9037 32.6107 25.7319 32.8894 25.6292 33.1958L23.025 41.0083C22.9208 41.3214 22.8924 41.6547 22.9421 41.9808C22.9919 42.307 23.1184 42.6167 23.3112 42.8844C23.5041 43.1521 23.7577 43.3702 24.0513 43.5207C24.345 43.6711 24.6701 43.7498 25 43.75C25.2237 43.7497 25.4459 43.7138 25.6584 43.6438L33.4709 41.0396C33.7779 40.9371 34.0568 40.7645 34.2855 40.5354L47.3063 27.5146C47.6969 27.1239 47.9163 26.5941 47.9163 26.0417C47.9163 25.4892 47.6969 24.9594 47.3063 24.5688L42.098 19.3604ZM31.6813 37.2417L28.2875 38.3729L29.4188 34.9792L40.625 23.7792L42.8875 26.0417L31.6813 37.2417Z" fill="#FF7F50"/>
</svg>
